<?xml version="1.0" standalone="no"?>
<!DOCTYPE svg PUBLIC "-//W3C//DTD SVG 20010904//EN"
 "http://www.w3.org/TR/2001/REC-SVG-20010904/DTD/svg10.dtd">
<svg version="1.0" xmlns="http://www.w3.org/2000/svg"
 width="120.000000pt" height="120.000000pt" viewBox="0 0 120.000000 120.000000"
 preserveAspectRatio="xMidYMid meet">
<metadata>
Created by potrace 1.11, written by Peter Selinger 2001-2013
</metadata>
<g transform="translate(0.000000,120.000000) scale(0.100000,-0.100000)"
fill="#000000" stroke="none">
<path d="M433 1165 c-180 -57 -306 -169 -383 -338 -39 -88 -50 -147 -46 -262
4 -112 29 -194 87 -291 60 -99 179 -200 285 -240 64 -24 74 -16 74 59 l0 63
-59 1 c-77 1 -111 22 -152 94 -18 33 -41 61 -51 65 -10 3 -18 10 -18 15 0 5 0
12 0 17 0 6 8 7 41 3 5 0 7 -6 3 -13 -5 -7 -2 -9 8 -5 9 3 25 -4 37 -17 22
-23 28 -42 11 -31 -5 3 -10 1 -10 -5 0 -7 6 -10 14 -7 8 3 22 -3 31 -13 21
-23 72 -35 112 -26 21 5 33 18 49 51 l21 45 -23 0 c-45 0 -136 42 -175 81 -72
72 -92 216 -44 316 21 42 27 69 27 121 0 36 2 72 5 79 8 22 55 15 121 -18 36
-17 71 -28 80 -24 34 13 159 17 214 6 55 -10 60 -9 114 19 59 32 109 39 117
17 3 -7 5 -42 5 -77 0 -49 7 -79 26 -120 42 -90 32 -222 -24 -300 -29 -41
-114 -88 -171 -96 l-46 -6 17 -34 c13 -25 18 -62 19 -146 1 -61 4 -115 7 -120
23 -37 217 74 299 171 41 48 95 145 117 210 19 55 22 86 22 186 -1 105 -4 129
-28 193 -75 202 -225 334 -437 389 -13 3 -69 7 -124 9 -82 2 -113 -2 -172 -21z"/>
<path d="M290 240 c0 -5 5 -10 10 -10 6 0 10 5 10 10 0 6 -4 10 -10 10 -5 0
-10 -4 -10 -10z"/>
<path d="M330 220 c0 -5 5 -10 10 -10 6 0 10 5 10 10 0 6 -4 10 -10 10 -5 0
-10 -4 -10 -10z"/>
<path d="M425 220 c-3 -5 1 -10 9 -10 9 0 16 5 16 10 0 6 -4 10 -9 10 -6 0
-13 -4 -16 -10z"/>
<path d="M380 210 c0 -5 5 -10 10 -10 6 0 10 5 10 10 0 6 -4 10 -10 10 -5 0
-10 -4 -10 -10z"/>
</g>
</svg>
